<?xml version="1.0" encoding="UTF-8" standalone="no"?>
<!-- Created with Inkscape (http://www.inkscape.org/) -->

<svg
   xmlns:dc="http://purl.org/dc/elements/1.1/"
   xmlns:cc="http://creativecommons.org/ns#"
   xmlns:rdf="http://www.w3.org/1999/02/22-rdf-syntax-ns#"
   xmlns:svg="http://www.w3.org/2000/svg"
   xmlns="http://www.w3.org/2000/svg"
   version="1.1"
   width="300"
   height="76.572678"
   id="svg11073">
  <defs
     id="defs11075">
    <clipPath
       id="clip1">
      <path
         d="m 511.10937,135.10937 c -5.0625,0.75 -8.80859,1.5 -14.62109,1.5 l -38.62109,0 c 0.1875,0.1875 0,4.5 0,4.5 -21,3.75 -15.75,28.8711 0.9375,29.0586 l 0,3.1875 33.37109,0 c 5.0625,0 18.93359,0.375 26.99609,2.625 8.0625,2.25 16.59375,1.96875 16.59375,1.96875 0,0 8.53125,0.0937 16.58985,-2.15625 8.0625,-2.25 21.9375,-2.625 27,-2.625 l 33.37109,0 0,-3.1875 c 16.6836,-0.1875 21.9336,-25.3086 0.9375,-29.0586 0,0 -0.1875,-4.3125 0,-4.5 l -38.62109,0 c -5.8125,0 -9.5625,-0.75 -14.625,-1.5 -5.0586,-0.75 -17.2461,-3.75 -24.3711,-3.75 -7.125,0 -19.875,3.1875 -24.9375,3.9375"
         id="path320" />
    </clipPath>
    <linearGradient
       x1="-0.049856499"
       y1="0"
       x2="1.2673711"
       y2="0"
       id="linear0"
       gradientUnits="userSpaceOnUse"
       gradientTransform="matrix(0,35.725037,-35.725037,0,535.76562,132.95312)">
      <stop
         id="stop323"
         style="stop-color:#4f321f;stop-opacity:1"
         offset="0.0378496" />
      <stop
         id="stop325"
         style="stop-color:#4f321f;stop-opacity:1"
         offset="0.0625" />
      <stop
         id="stop327"
         style="stop-color:#4f321f;stop-opacity:1"
         offset="0.078125" />
      <stop
         id="stop329"
         style="stop-color:#4f321f;stop-opacity:1"
         offset="0.0859375" />
      <stop
         id="stop331"
         style="stop-color:#50331f;stop-opacity:1"
         offset="0.09375" />
      <stop
         id="stop333"
         style="stop-color:#50331f;stop-opacity:1"
         offset="0.101562" />
      <stop
         id="stop335"
         style="stop-color:#503320;stop-opacity:1"
         offset="0.109375" />
      <stop
         id="stop337"
         style="stop-color:#513320;stop-opacity:1"
         offset="0.117188" />
      <stop
         id="stop339"
         style="stop-color:#513420;stop-opacity:1"
         offset="0.125" />
      <stop
         id="stop341"
         style="stop-color:#513420;stop-opacity:1"
         offset="0.13281301" />
      <stop
         id="stop343"
         style="stop-color:#523420;stop-opacity:1"
         offset="0.140625" />
      <stop
         id="stop345"
         style="stop-color:#523520;stop-opacity:1"
         offset="0.14843801" />
      <stop
         id="stop347"
         style="stop-color:#523520;stop-opacity:1"
         offset="0.15625" />
      <stop
         id="stop349"
         style="stop-color:#533520;stop-opacity:1"
         offset="0.16406199" />
      <stop
         id="stop351"
         style="stop-color:#533521;stop-opacity:1"
         offset="0.171875" />
      <stop
         id="stop353"
         style="stop-color:#543621;stop-opacity:1"
         offset="0.17968699" />
      <stop
         id="stop355"
         style="stop-color:#543621;stop-opacity:1"
         offset="0.1875" />
      <stop
         id="stop357"
         style="stop-color:#543621;stop-opacity:1"
         offset="0.19531301" />
      <stop
         id="stop359"
         style="stop-color:#553721;stop-opacity:1"
         offset="0.203125" />
      <stop
         id="stop361"
         style="stop-color:#553721;stop-opacity:1"
         offset="0.21093801" />
      <stop
         id="stop363"
         style="stop-color:#553721;stop-opacity:1"
         offset="0.21875" />
      <stop
         id="stop365"
         style="stop-color:#563822;stop-opacity:1"
         offset="0.22656199" />
      <stop
         id="stop367"
         style="stop-color:#563822;stop-opacity:1"
         offset="0.234375" />
      <stop
         id="stop369"
         style="stop-color:#563822;stop-opacity:1"
         offset="0.24218699" />
      <stop
         id="stop371"
         style="stop-color:#573922;stop-opacity:1"
         offset="0.25" />
      <stop
         id="stop373"
         style="stop-color:#573922;stop-opacity:1"
         offset="0.25781301" />
      <stop
         id="stop375"
         style="stop-color:#583922;stop-opacity:1"
         offset="0.265625" />
      <stop
         id="stop377"
         style="stop-color:#583922;stop-opacity:1"
         offset="0.27343801" />
      <stop
         id="stop379"
         style="stop-color:#583a22;stop-opacity:1"
         offset="0.28125" />
      <stop
         id="stop381"
         style="stop-color:#593a23;stop-opacity:1"
         offset="0.28906301" />
      <stop
         id="stop383"
         style="stop-color:#593a23;stop-opacity:1"
         offset="0.296875" />
      <stop
         id="stop385"
         style="stop-color:#593b23;stop-opacity:1"
         offset="0.30468801" />
      <stop
         id="stop387"
         style="stop-color:#5a3b23;stop-opacity:1"
         offset="0.3125" />
      <stop
         id="stop389"
         style="stop-color:#5a3b23;stop-opacity:1"
         offset="0.32031301" />
      <stop
         id="stop391"
         style="stop-color:#5b3c23;stop-opacity:1"
         offset="0.328125" />
      <stop
         id="stop393"
         style="stop-color:#5b3c23;stop-opacity:1"
         offset="0.33593699" />
      <stop
         id="stop395"
         style="stop-color:#5b3c24;stop-opacity:1"
         offset="0.34375" />
      <stop
         id="stop397"
         style="stop-color:#5c3d24;stop-opacity:1"
         offset="0.35156301" />
      <stop
         id="stop399"
         style="stop-color:#5c3d24;stop-opacity:1"
         offset="0.359375" />
      <stop
         id="stop401"
         style="stop-color:#5c3d24;stop-opacity:1"
         offset="0.36718801" />
      <stop
         id="stop403"
         style="stop-color:#5d3e24;stop-opacity:1"
         offset="0.375" />
      <stop
         id="stop405"
         style="stop-color:#5d3e24;stop-opacity:1"
         offset="0.38281301" />
      <stop
         id="stop407"
         style="stop-color:#5e3e24;stop-opacity:1"
         offset="0.390625" />
      <stop
         id="stop409"
         style="stop-color:#5e3f25;stop-opacity:1"
         offset="0.39843699" />
      <stop
         id="stop411"
         style="stop-color:#5e3f25;stop-opacity:1"
         offset="0.40625" />
      <stop
         id="stop413"
         style="stop-color:#5f3f25;stop-opacity:1"
         offset="0.41406301" />
      <stop
         id="stop415"
         style="stop-color:#5f3f25;stop-opacity:1"
         offset="0.421875" />
      <stop
         id="stop417"
         style="stop-color:#5f4025;stop-opacity:1"
         offset="0.42968699" />
      <stop
         id="stop419"
         style="stop-color:#604025;stop-opacity:1"
         offset="0.4375" />
      <stop
         id="stop421"
         style="stop-color:#604025;stop-opacity:1"
         offset="0.44531301" />
      <stop
         id="stop423"
         style="stop-color:#614125;stop-opacity:1"
         offset="0.453125" />
      <stop
         id="stop425"
         style="stop-color:#614126;stop-opacity:1"
         offset="0.46093699" />
      <stop
         id="stop427"
         style="stop-color:#614126;stop-opacity:1"
         offset="0.46875" />
      <stop
         id="stop429"
         style="stop-color:#624226;stop-opacity:1"
         offset="0.47656301" />
      <stop
         id="stop431"
         style="stop-color:#624226;stop-opacity:1"
         offset="0.484375" />
      <stop
         id="stop433"
         style="stop-color:#624226;stop-opacity:1"
         offset="0.49218699" />
      <stop
         id="stop435"
         style="stop-color:#634326;stop-opacity:1"
         offset="0.5" />
      <stop
         id="stop437"
         style="stop-color:#634326;stop-opacity:1"
         offset="0.50781298" />
      <stop
         id="stop439"
         style="stop-color:#644326;stop-opacity:1"
         offset="0.515625" />
      <stop
         id="stop441"
         style="stop-color:#644427;stop-opacity:1"
         offset="0.52343798" />
      <stop
         id="stop443"
         style="stop-color:#644427;stop-opacity:1"
         offset="0.53125" />
      <stop
         id="stop445"
         style="stop-color:#654427;stop-opacity:1"
         offset="0.53906298" />
      <stop
         id="stop447"
         style="stop-color:#654527;stop-opacity:1"
         offset="0.546875" />
      <stop
         id="stop449"
         style="stop-color:#664527;stop-opacity:1"
         offset="0.55468798" />
      <stop
         id="stop451"
         style="stop-color:#664527;stop-opacity:1"
         offset="0.5625" />
      <stop
         id="stop453"
         style="stop-color:#664627;stop-opacity:1"
         offset="0.57031298" />
      <stop
         id="stop455"
         style="stop-color:#674628;stop-opacity:1"
         offset="0.578125" />
      <stop
         id="stop457"
         style="stop-color:#674628;stop-opacity:1"
         offset="0.58593798" />
      <stop
         id="stop459"
         style="stop-color:#674728;stop-opacity:1"
         offset="0.59375" />
      <stop
         id="stop461"
         style="stop-color:#684728;stop-opacity:1"
         offset="0.60156298" />
      <stop
         id="stop463"
         style="stop-color:#684728;stop-opacity:1"
         offset="0.609375" />
      <stop
         id="stop465"
         style="stop-color:#694828;stop-opacity:1"
         offset="0.61718798" />
      <stop
         id="stop467"
         style="stop-color:#694828;stop-opacity:1"
         offset="0.625" />
      <stop
         id="stop469"
         style="stop-color:#694828;stop-opacity:1"
         offset="0.63281298" />
      <stop
         id="stop471"
         style="stop-color:#6a4929;stop-opacity:1"
         offset="0.640625" />
      <stop
         id="stop473"
         style="stop-color:#6a4929;stop-opacity:1"
         offset="0.64843798" />
      <stop
         id="stop475"
         style="stop-color:#6b4a29;stop-opacity:1"
         offset="0.65625" />
      <stop
         id="stop477"
         style="stop-color:#6b4a29;stop-opacity:1"
         offset="0.66406298" />
      <stop
         id="stop479"
         style="stop-color:#6b4a29;stop-opacity:1"
         offset="0.671875" />
      <stop
         id="stop481"
         style="stop-color:#6c4b29;stop-opacity:1"
         offset="0.67968702" />
      <stop
         id="stop483"
         style="stop-color:#6c4b29;stop-opacity:1"
         offset="0.6875" />
      <stop
         id="stop485"
         style="stop-color:#6d4b29;stop-opacity:1"
         offset="0.69531298" />
      <stop
         id="stop487"
         style="stop-color:#6d4c2a;stop-opacity:1"
         offset="0.703125" />
      <stop
         id="stop489"
         style="stop-color:#6d4c2a;stop-opacity:1"
         offset="0.71093702" />
      <stop
         id="stop491"
         style="stop-color:#6e4c2a;stop-opacity:1"
         offset="0.71875" />
      <stop
         id="stop493"
         style="stop-color:#6e4d2a;stop-opacity:1"
         offset="0.72656298" />
      <stop
         id="stop495"
         style="stop-color:#6f4d2a;stop-opacity:1"
         offset="0.734375" />
      <stop
         id="stop497"
         style="stop-color:#6f4d2a;stop-opacity:1"
         offset="0.74218798" />
      <stop
         id="stop499"
         style="stop-color:#6f4e2a;stop-opacity:1"
         offset="0.75" />
      <stop
         id="stop501"
         style="stop-color:#704e2a;stop-opacity:1"
         offset="0.75781298" />
      <stop
         id="stop503"
         style="stop-color:#704e2b;stop-opacity:1"
         offset="0.765625" />
      <stop
         id="stop505"
         style="stop-color:#714f2b;stop-opacity:1"
         offset="0.77343798" />
      <stop
         id="stop507"
         style="stop-color:#714f2b;stop-opacity:1"
         offset="0.78125" />
      <stop
         id="stop509"
         style="stop-color:#71502b;stop-opacity:1"
         offset="0.78906202" />
      <stop
         id="stop511"
         style="stop-color:#72502b;stop-opacity:1"
         offset="0.796875" />
      <stop
         id="stop513"
         style="stop-color:#72502b;stop-opacity:1"
         offset="0.8125" />
      <stop
         id="stop515"
         style="stop-color:#72502b;stop-opacity:1"
         offset="0.875" />
      <stop
         id="stop517"
         style="stop-color:#72502b;stop-opacity:1"
         offset="1" />
    </linearGradient>
  </defs>
  <metadata
     id="metadata11078">
    <rdf:RDF>
      <cc:Work
         rdf:about="">
        <dc:format>image/svg+xml</dc:format>
        <dc:type
           rdf:resource="http://purl.org/dc/dcmitype/StillImage" />
        <dc:title></dc:title>
      </cc:Work>
    </rdf:RDF>
  </metadata>
  <g
     transform="translate(-151.14518,-493.60351)"
     id="layer1">
    <g
       transform="matrix(1.6365669,0,0,1.6365669,-575.66873,278.93197)"
       id="g10903">
      <g
         clip-path="url(#clip1)"
         id="g6467"
         style="clip-rule:nonzero">
        <path
           d="m 634.66016,131.17187 -197.79297,0 0,47.0586 197.79297,0 z"
           id="path6469"
           style="fill:url(#linear0);fill-rule:nonzero;stroke:none" />
      </g>
      <path
         d="m 464.03125,147.92969 10.19141,0.0234 0,3.65625 c 0,0 -0.84375,0.1875 -1.40625,0.28125 0,0 0.28125,-1.125 -0.27735,-1.40625 -0.5664,-0.28125 -3.84765,-0.0937 -3.84765,-0.0937 l 0,3 1.59765,0 c 0,0 0.65235,-0.5664 0.9336,-0.84375 0.28515,-0.28125 0.75,-0.3789 0.75,-0.3789 l 0,5.0664 c 0,0 -0.83985,-0.0937 -1.125,-0.47265 -0.28125,-0.3711 -0.375,-0.75 -0.375,-0.75 l -1.58985,0 0,3.75 c 0,0 0.46485,0.28125 0.83985,0.47265 l 0.46875,0 0,1.40235 -5.71875,0 0,-1.26563 c 0.46875,-0.1875 0.75,-0.51562 0.75,-0.51562 l 0,-9.27735 c 0,0 -0.375,-1.03125 -0.75,-1.125 l -0.375,-0.0937 z"
         id="path6471"
         style="fill:#f3e1b0;fill-opacity:1;fill-rule:nonzero;stroke:#cc3f1e;stroke-width:0.56199998;stroke-linecap:butt;stroke-linejoin:miter;stroke-miterlimit:4;stroke-opacity:1" />
      <path
         d="m 482.37891,153.15625 c -0.5625,0.28516 -2.8125,0.14062 -2.8125,0.14062 l 0,-3.13671 c 0,0 1.54687,-0.28516 2.53125,0.0742 0.98437,0.35547 0.84375,2.63672 0.28125,2.92188 m 0.91406,6.84375 -0.0703,1.56641 5.53125,0 -0.21094,-1.4961 c 0,0 -0.77344,-0.0703 -1.33594,-0.5 -0.5625,-0.42578 -2.71875,-4.13281 -2.71875,-4.13281 0,0 1.54688,-1.5 1.82813,-2.07031 0.28125,-0.57032 0,-3.20703 0,-3.20703 0,0 -1.05469,-1.92188 -3.51563,-2.13672 l -6.67969,0 0,1.71093 c 0,0 0.5625,0.35547 0.63282,0.85547 0.0703,0.4961 0,8.83985 0,8.83985 0,0 -0.48829,0.42578 -1.19141,0.49609 l 0,1.71094 5.55078,0 0,-1.4961 c 0,0 -1.26562,-0.42578 -1.40625,-0.71093 l 0,-3.77735 1.61719,0.0703 c 0,0 2.17969,3.34765 2.39062,3.63281 0.21094,0.28515 -0.42187,0.64453 -0.42187,0.64453"
         id="path6473"
         style="fill:#f3e1b0;fill-opacity:1;fill-rule:nonzero;stroke:none" />
      <path
         d="m 482.37891,153.15625 c -0.5625,0.28516 -2.8125,0.14062 -2.8125,0.14062 l 0,-3.13671 c 0,0 1.54687,-0.28516 2.53125,0.0742 0.98437,0.35547 0.84375,2.63672 0.28125,2.92188 z m 0.91406,6.84375 -0.0703,1.56641 5.53125,0 -0.21094,-1.4961 c 0,0 -0.77344,-0.0703 -1.33594,-0.5 -0.5625,-0.42578 -2.71875,-4.13281 -2.71875,-4.13281 0,0 1.54688,-1.5 1.82813,-2.07031 0.28125,-0.57032 0,-3.20703 0,-3.20703 0,0 -1.05469,-1.92188 -3.51563,-2.13672 l -6.67969,0 0,1.71093 c 0,0 0.5625,0.35547 0.63282,0.85547 0.0703,0.4961 0,8.83985 0,8.83985 0,0 -0.48829,0.42578 -1.19141,0.49609 l 0,1.71094 5.55078,0 0,-1.4961 c 0,0 -1.26562,-0.42578 -1.40625,-0.71093 l 0,-3.77735 1.61719,0.0703 c 0,0 2.17969,3.34765 2.39062,3.63281 0.21094,0.28515 -0.42187,0.64453 -0.42187,0.64453 z"
         id="path6475"
         style="fill:none;stroke:#cc3f1e;stroke-width:0.56199998;stroke-linecap:butt;stroke-linejoin:miter;stroke-miterlimit:4;stroke-opacity:1" />
      <path
         d="m 498.73437,157.79687 c -0.0937,0.53516 -1.30859,1.65625 -1.30859,1.65625 0,0 -2.53125,0.14454 -2.8125,0 -0.28125,-0.14843 -1.5,-1.07031 -1.5,-1.75 0,-0.68359 -0.125,-5.90234 0,-6.42187 0.1875,-0.77734 1.40625,-1.50781 1.40625,-1.50781 0,0 2.39063,-0.0937 2.8125,0 0.42188,0.0977 1.40234,1.50781 1.40234,1.50781 0,0 0.0977,5.98047 0,6.51562 m 3.52344,-7.97265 c -0.53125,-0.65625 -1.47656,-0.48438 -1.74219,-0.85156 -0.26562,-0.36329 -0.53125,-1.01954 -1.125,-1.01954 l -6.47656,0 c -0.59765,0 -0.85937,0.65625 -1.125,1.01954 -0.26562,0.36718 -1.21094,0.19531 -1.74219,0.85156 -0.53125,0.65625 -0.30859,9.38281 -0.0234,9.9414 0.1914,0.3711 0.99218,0.58594 1.45703,0.65625 0.46094,0.0742 0.68359,0.73047 1.48047,1.07032 0.41015,0.17968 2.07422,0.082 3.1914,0.10937 1.11719,-0.0273 2.78125,0.0703 3.19141,-0.10937 0.79687,-0.33985 1.01562,-0.9961 1.48047,-1.07032 0.46484,-0.0703 1.26562,-0.28515 1.45703,-0.65625 0.28516,-0.55859 0.50781,-9.28515 -0.0234,-9.9414"
         id="path6477"
         style="fill:#f3e1b0;fill-opacity:1;fill-rule:nonzero;stroke:none" />
      <path
         d="m 498.73437,157.79687 c -0.0937,0.53516 -1.30859,1.65625 -1.30859,1.65625 0,0 -2.53125,0.14454 -2.8125,0 -0.28125,-0.14843 -1.5,-1.07031 -1.5,-1.75 0,-0.68359 -0.125,-5.90234 0,-6.42187 0.1875,-0.77734 1.40625,-1.50781 1.40625,-1.50781 0,0 2.39063,-0.0937 2.8125,0 0.42188,0.0977 1.40234,1.50781 1.40234,1.50781 0,0 0.0977,5.98047 0,6.51562 z m 3.52344,-7.97265 c -0.53125,-0.65625 -1.47656,-0.48438 -1.74219,-0.85156 -0.26562,-0.36329 -0.53125,-1.01954 -1.125,-1.01954 l -6.47656,0 c -0.59765,0 -0.85937,0.65625 -1.125,1.01954 -0.26562,0.36718 -1.21094,0.19531 -1.74219,0.85156 -0.53125,0.65625 -0.30859,9.38281 -0.0234,9.9414 0.1914,0.3711 0.99219,0.58594 1.45703,0.65625 0.46094,0.0742 0.68359,0.73047 1.48047,1.07032 0.41015,0.17968 2.07422,0.082 3.1914,0.10937 1.11719,-0.0273 2.78125,0.0703 3.19141,-0.10937 0.79688,-0.33985 1.01563,-0.9961 1.48047,-1.07032 0.46484,-0.0703 1.26562,-0.28515 1.45703,-0.65625 0.28516,-0.55859 0.50781,-9.28515 -0.0234,-9.9414 z"
         id="path6479"
         style="fill:none;stroke:#cc3f1e;stroke-width:0.56199998;stroke-linecap:butt;stroke-linejoin:miter;stroke-miterlimit:4;stroke-opacity:1" />
      <path
         d="m 516.58594,148.53516 0,-0.65235 -5.15625,-0.0117 -0.0156,0.87891 c 0,0 1.23047,0.25391 1.30469,0.61328 0.0664,0.36328 0,5.67578 0,5.67578 l -3.73047,-5.60156 c 0,0 0.17578,-0.65234 0.53125,-0.6875 l 0.0703,-0.9375 -5.15625,0 0,1.53906 c 0,0 0.5586,0.57813 0.62891,1.08594 0.0742,0.50391 0,8.96094 0,8.96094 0,0 -0.49219,0.43359 -1.19531,0.5039 l 0,1.73438 5.55859,0 0,-1.51563 c 0,0 -1.26953,-0.43359 -1.40625,-0.72265 l 0,-5.3711 c 0,0 3.79297,5.00782 4.00391,5.29688 0.21093,0.28906 -0.41797,0.65234 -0.41797,0.65234 l -0.0742,1.58985 5.53125,0 -0.21094,-1.51954 c 0,0 -0.33594,0.0117 -0.90234,-0.42187 0,0 -0.0664,-9.82813 -0.0664,-10.26172 0,-0.43359 0.70313,-0.82812 0.70313,-0.82812"
         id="path6481"
         style="fill:#f3e1b0;fill-opacity:1;fill-rule:nonzero;stroke:none" />
      <path
         d="m 516.58594,148.53516 0,-0.65235 -5.15625,-0.0117 -0.0156,0.87891 c 0,0 1.23047,0.25391 1.30469,0.61328 0.0664,0.36328 0,5.67578 0,5.67578 l -3.73047,-5.60156 c 0,0 0.17578,-0.65234 0.53125,-0.6875 l 0.0703,-0.9375 -5.15625,0 0,1.53906 c 0,0 0.5586,0.57813 0.62891,1.08594 0.0742,0.50391 0,8.96094 0,8.96094 0,0 -0.49219,0.43359 -1.19531,0.5039 l 0,1.73438 5.55859,0 0,-1.51563 c 0,0 -1.26953,-0.43359 -1.40625,-0.72265 l 0,-5.3711 c 0,0 3.79297,5.00782 4.00391,5.29688 0.21093,0.28906 -0.41797,0.65234 -0.41797,0.65234 l -0.0742,1.58985 5.53125,0 -0.21094,-1.51954 c 0,0 -0.33594,0.0117 -0.90234,-0.42187 0,0 -0.0664,-9.82813 -0.0664,-10.26172 0,-0.43359 0.70313,-0.82812 0.70313,-0.82812 z"
         id="path6483"
         style="fill:none;stroke:#cc3f1e;stroke-width:0.56199998;stroke-linecap:butt;stroke-linejoin:miter;stroke-miterlimit:4;stroke-opacity:1" />
      <path
         d="m 519.21875,147.90625 9.1875,0 0.51562,0.29297 0,3.98828 -0.70312,0 c 0,0 -0.51563,-1.92188 -0.9375,-2.11719 l -1.6875,0 0,9.39844 c 0,0 0.75,0.88672 1.45312,0.98437 l 0,1.23047 -5.90625,0 0,-1.27734 c 0,0 1.125,-0.29688 1.3125,-0.73828 l 0,-9.59766 -2.25,0 c 0,0 -0.70312,0.69141 -0.65625,1.82031 l -0.79687,0 0,-3.6914 z"
         id="path6485"
         style="fill:#f3e1b0;fill-opacity:1;fill-rule:nonzero;stroke:#cc3f1e;stroke-width:0.56199998;stroke-linecap:butt;stroke-linejoin:miter;stroke-miterlimit:4;stroke-opacity:1" />
      <path
         d="m 531.35937,147.90625 0,0.89844 c 0,0 0.42188,0.20312 0.46875,0.55078 0.0469,0.35156 0,10.28515 0,10.28515 0,0 -0.375,0.55079 -0.84375,0.64844 l 0,1.34766 5.01563,0 0,-1.44531 c 0,0 -0.5625,-0.40235 -0.70313,-0.75 l 0,-11.58204 z"
         id="path6487"
         style="fill:#f3e1b0;fill-opacity:1;fill-rule:nonzero;stroke:#cc3f1e;stroke-width:0.56199998;stroke-linecap:butt;stroke-linejoin:miter;stroke-miterlimit:4;stroke-opacity:1" />
      <path
         d="m 537.6875,147.95312 9.5625,0 0,3.77344 -0.75,0 c 0,0 -0.375,-1.41015 -1.08203,-1.46094 l -3.83985,0 0,2.51954 1.875,0 c 0,0 0.51172,-0.60547 0.51172,-0.95704 l 0.75,0 0,3.92579 -0.79687,0 c 0,0 0,-0.70704 -0.23438,-0.75782 l -2.01172,0 0,4.07813 4.16797,0 c 0,0 0.70703,-0.90625 0.75,-1.35938 l 0.84375,0 0,3.875 -8.94922,0 0,-0.7539 c 0,0 0.375,-0.45313 0.375,-0.80469 l 0,-10.41797 c 0,0 -0.60937,-0.55469 -1.07812,-0.60547 z"
         id="path6489"
         style="fill:#f3e1b0;fill-opacity:1;fill-rule:nonzero;stroke:#cc3f1e;stroke-width:0.56199998;stroke-linecap:butt;stroke-linejoin:miter;stroke-miterlimit:4;stroke-opacity:1" />
      <path
         d="m 556.20312,153.08594 c -0.5664,0.28906 -2.8164,0.14453 -2.8164,0.14453 l 0,-3.15235 c 0,0 1.54687,-0.28515 2.53515,0.0703 0.98047,0.35937 0.83985,2.65234 0.28125,2.9375 m 0.91016,6.8789 -0.0664,1.57813 4.8711,0 -0.21094,-1.50391 c 0,0 -0.77344,-0.0742 -1.33594,-0.5039 -0.5625,-0.42969 -2.71875,-4.15625 -2.71875,-4.15625 0,0 1.54688,-1.50391 1.82813,-2.07813 0.28125,-0.57031 0,-3.22266 0,-3.22266 0,0 -0.39453,-1.93359 -2.85547,-2.14843 l -6.68359,0 0,1.71875 c 0,0 0.5664,0.35937 0.63671,0.85937 0.0664,0.5 0,8.88672 0,8.88672 0,0 -0.49218,0.42969 -1.19531,0.5 l 0,1.71875 5.55078,0 0,-1.50391 c 0,0 -1.26172,-0.42968 -1.40625,-0.71484 l 0,-3.80078 1.61719,0.0742 c 0,0 2.18359,3.36719 2.39063,3.65234 0.21484,0.28906 -0.42188,0.64453 -0.42188,0.64453"
         id="path6491"
         style="fill:#f3e1b0;fill-opacity:1;fill-rule:nonzero;stroke:none" />
      <path
         d="m 556.20312,153.08594 c -0.5664,0.28906 -2.8164,0.14453 -2.8164,0.14453 l 0,-3.15235 c 0,0 1.54687,-0.28515 2.53515,0.0703 0.98047,0.35937 0.83985,2.65234 0.28125,2.9375 z m 0.91016,6.8789 -0.0664,1.57813 4.8711,0 -0.21094,-1.50391 c 0,0 -0.77344,-0.0742 -1.33594,-0.5039 -0.5625,-0.42969 -2.71875,-4.15625 -2.71875,-4.15625 0,0 1.54688,-1.50391 1.82813,-2.07813 0.28125,-0.57031 0,-3.22266 0,-3.22266 0,0 -0.39453,-1.93359 -2.85547,-2.14843 l -6.68359,0 0,1.71875 c 0,0 0.5664,0.35937 0.63671,0.85937 0.0664,0.5 0,8.88672 0,8.88672 0,0 -0.49218,0.42969 -1.19531,0.5 l 0,1.71875 5.55078,0 0,-1.50391 c 0,0 -1.26172,-0.42968 -1.40625,-0.71484 l 0,-3.80078 1.61719,0.0742 c 0,0 2.18359,3.36719 2.39063,3.65234 0.21484,0.28906 -0.42188,0.64453 -0.42188,0.64453 z"
         id="path6493"
         style="fill:none;stroke:#cc3f1e;stroke-width:0.56199998;stroke-linecap:butt;stroke-linejoin:miter;stroke-miterlimit:4;stroke-opacity:1" />
      <path
         d="m 562.29297,147.76562 4.59375,0 0,11.87891 1.875,0 c 0,0 1.96875,-1.73047 2.39062,-2.80469 l 0.49219,0 0,4.86719 -7.94531,0 0,-11.96094 c 0,0 -0.5625,-0.82812 -1.26563,-0.99218 z"
         id="path6495"
         style="fill:#f3e1b0;fill-opacity:1;fill-rule:nonzero;stroke:#cc3f1e;stroke-width:0.56199998;stroke-linecap:butt;stroke-linejoin:miter;stroke-miterlimit:4;stroke-opacity:1" />
      <path
         d="m 577.16797,155.69922 0.84765,-4.19141 0.70704,0 1.19921,4.19141 z m 6.51953,3.89844 c 0,0 -2.73828,-9.80079 -2.73828,-10.19532 0,-0.39843 0.35156,-0.55468 0.35156,-0.55468 l 0,-0.79297 -6.12109,-0.0273 0,0.94922 c 0.49609,0.15625 0.63672,0.71094 0.63672,0.71094 l -1.75782,9.91016 c -0.21093,0.47656 -0.91406,0.92578 -0.91406,0.92578 l 0,1.18359 4.09375,-0.0781 -0.14062,-1.26563 0.28515,-2.6875 2.39844,0 c 0,0 0.63281,2.44922 0.63281,2.76563 0,0.3164 -0.28125,1.1875 -0.28125,1.1875 l 4.23438,0 0.0742,-1.66016 c -0.63672,-0.0781 -0.75391,-0.37109 -0.75391,-0.37109"
         id="path6497"
         style="fill:#f3e1b0;fill-opacity:1;fill-rule:nonzero;stroke:none" />
      <path
         d="m 577.16797,155.69922 0.84765,-4.19141 0.70704,0 1.19921,4.19141 z m 6.51953,3.89844 c 0,0 -2.73828,-9.80079 -2.73828,-10.19532 0,-0.39843 0.35156,-0.55468 0.35156,-0.55468 l 0,-0.79297 -6.12109,-0.0273 0,0.94922 c 0.49609,0.15625 0.63672,0.71094 0.63672,0.71094 l -1.75782,9.91016 c -0.21093,0.47656 -0.91406,0.92578 -0.91406,0.92578 l 0,1.18359 4.09375,-0.0781 -0.14062,-1.26563 0.28515,-2.6875 2.39844,0 c 0,0 0.63281,2.44922 0.63281,2.76563 0,0.3164 -0.28125,1.1875 -0.28125,1.1875 l 4.23438,0 0.0742,-1.66016 c -0.63672,-0.0781 -0.75391,-0.37109 -0.75391,-0.37109 z"
         id="path6499"
         style="fill:none;stroke:#cc3f1e;stroke-width:0.56199998;stroke-linecap:butt;stroke-linejoin:miter;stroke-miterlimit:4;stroke-opacity:1" />
      <path
         d="m 596.48047,148.58203 0,-0.65234 -4.35547,-0.0117 -0.008,0.8789 c 0,0 1.03906,0.25391 1.09375,0.61719 0.0625,0.35938 0,5.67188 0,5.67188 l -3.14453,-5.60157 c 0,0 0.14843,-0.64843 0.44531,-0.6875 l 0.0586,-0.9375 -4.35547,0 0,1.53907 c 0,0 0.47657,0.57812 0.53516,1.08593 0.0586,0.50391 0,8.96094 0,8.96094 0,0 -0.41406,0.4336 -1.00781,0.50391 l 0,1.73437 4.6875,0 0,-1.51562 c 0,0 -1.06641,-0.4336 -1.1836,-0.72266 l 0,-5.37109 c 0,0 3.20703,5.00781 3.38282,5.29687 0.17968,0.29297 -0.35547,0.65235 -0.35547,0.65235 l -0.0586,1.58984 4.66797,0 -0.17578,-1.51953 c 0,0 -0.28906,0.0156 -0.76172,-0.42188 0,0 -0.0586,-9.82421 -0.0586,-10.25781 0,-0.4375 0.59375,-0.83203 0.59375,-0.83203"
         id="path6501"
         style="fill:#f3e1b0;fill-opacity:1;fill-rule:nonzero;stroke:none" />
      <path
         d="m 596.48047,148.58203 0,-0.65234 -4.35547,-0.0117 -0.008,0.8789 c 0,0 1.03906,0.25391 1.09375,0.61719 0.0625,0.35938 0,5.67188 0,5.67188 l -3.14453,-5.60157 c 0,0 0.14843,-0.64843 0.44531,-0.6875 l 0.0586,-0.9375 -4.35547,0 0,1.53907 c 0,0 0.47657,0.57812 0.53516,1.08593 0.0586,0.50391 0,8.96094 0,8.96094 0,0 -0.41406,0.4336 -1.00781,0.50391 l 0,1.73437 4.6875,0 0,-1.51562 c 0,0 -1.06641,-0.4336 -1.1836,-0.72266 l 0,-5.37109 c 0,0 3.20703,5.00781 3.38282,5.29687 0.17968,0.29297 -0.35547,0.65235 -0.35547,0.65235 l -0.0586,1.58984 4.66797,0 -0.17578,-1.51953 c 0,0 -0.28906,0.0156 -0.76172,-0.42188 0,0 -0.0586,-9.82421 -0.0586,-10.25781 0,-0.4375 0.59375,-0.83203 0.59375,-0.83203 z"
         id="path6503"
         style="fill:none;stroke:#cc3f1e;stroke-width:0.56199998;stroke-linecap:butt;stroke-linejoin:miter;stroke-miterlimit:4;stroke-opacity:1" />
      <path
         d="m 605.08594,158.70703 -2.8125,0 0,-8.3125 2.4375,0 c 0,0 1.99218,1.23828 1.99218,3.59766 0,2.96484 -0.58593,3.69922 -1.61718,4.71484 m 0.84375,-10.84766 -7.4961,0 0,1.21485 c 0,0 0.83985,0.40625 0.83985,0.91406 l 0,9.53125 c 0,0 -0.0899,0.19922 -0.5586,0.60547 l 0,1.41797 7.8711,0 2.90625,-2.9375 0,-8.41406 z"
         id="path6505"
         style="fill:#f3e1b0;fill-opacity:1;fill-rule:nonzero;stroke:none" />
      <path
         d="m 605.08594,158.70703 -2.8125,0 0,-8.3125 2.4375,0 c 0,0 1.99218,1.23828 1.99218,3.59766 0,2.96484 -0.58593,3.69922 -1.61718,4.71484 z m 0.84375,-10.84766 -7.4961,0 0,1.21485 c 0,0 0.83985,0.40625 0.83985,0.91406 l 0,9.53125 c 0,0 -0.0899,0.19922 -0.5586,0.60547 l 0,1.41797 7.8711,0 2.90625,-2.9375 0,-8.41406 z"
         id="path6507"
         style="fill:none;stroke:#cc3f1e;stroke-width:0.56199998;stroke-linecap:butt;stroke-linejoin:miter;stroke-miterlimit:4;stroke-opacity:1" />
      <path
         d="m 605.69531,165.57422 -139.48437,0"
         id="path6509"
         style="fill:none;stroke:#de9919;stroke-width:0.56199998;stroke-linecap:round;stroke-linejoin:miter;stroke-miterlimit:4;stroke-opacity:1" />
      <path
         d="m 536.5625,165.66797 c -0.46875,0 -0.84375,0.3789 -0.84375,0.84375 0,0.46484 1.06641,0.92578 -0.12891,1.80859 -1.28515,0.94922 -3.66797,0.91406 -5.98437,0.57031 0.79297,-0.0352 1.54687,-0.18359 2.21875,-0.45703 1.72656,-0.71484 2.01953,-1.6914 2.01953,-2.01562 0,-0.46485 -0.37891,-0.84375 -0.84375,-0.84375 -0.46484,0 -0.84375,0.3789 -0.84375,0.84375 0,0.34375 0.58594,0.8789 -0.55859,1.49609 -0.72657,0.39453 -1.6836,0.44922 -2.66797,0.41797 0.30859,-0.0547 0.60156,-0.12109 0.86328,-0.21094 0.61719,-0.21484 1.07422,-0.51172 1.3789,-0.89062 0.11719,-0.10547 0.20313,-0.24219 0.2461,-0.39844 0.004,-0.008 0.008,-0.0117 0.008,-0.0156 l -0.004,-0.004 c 0.0195,-0.0664 0.0312,-0.13281 0.0312,-0.20703 0,-0.46485 -0.38281,-0.91406 -0.84375,-0.84375 -0.60937,0.0937 -0.46875,0.4375 -0.46875,0.90234 0,0.3086 0,0.70313 -0.52734,0.92578 -1.36719,0.56641 -3.38281,0.34766 -4.74219,-0.0781 -0.27734,-0.10156 -0.54297,-0.20703 -0.80078,-0.31641 -2.11719,-1.10937 -3.625,-1.61719 -5.52734,-1.14062 0,0 -2.54688,-0.29688 -3.65235,-0.12891 -0.88281,0.13672 -2.46875,0.63281 -2.55859,1.71094 -0.043,0.46484 0.375,0.84375 0.83984,0.84375 0.46875,0 0.84375,-0.375 0.84375,-0.84375 0,-0.26563 -0.125,-0.5 -0.3164,-0.65235 0.23047,-0.23437 0.67578,-0.41015 1.27734,-0.5039 1.53906,-0.23438 4.79297,0.53515 4.75781,1.4375 -0.0195,0.46875 0.37891,0.84375 0.84375,0.84375 0.46485,0 0.95704,-0.39063 0.84375,-0.84375 -0.21093,-0.86719 -1.58593,-1.27344 -2.00781,-1.44531 1.41797,-0.14844 2.69922,0.33203 4.41016,1.22656 0.008,0.004 0.0117,0.004 0.0156,0.008 0.004,0 0.004,0.004 0.004,0.004 0.27734,0.14062 0.59375,0.26172 0.93359,0.36718 l -0.004,0.004 c 2.04297,0.93359 4.78125,1.56641 7.1875,1.56641 1.52734,0 2.91797,-0.25391 3.91406,-0.84375 0.79297,-0.46875 1.27344,-1.10938 1.43359,-1.90625 0.10938,-0.58594 -0.28125,-1.23047 -0.74609,-1.23047"
         id="path6511"
         style="fill:#de9919;fill-opacity:1;fill-rule:nonzero;stroke:none" />
      <path
         d="m 539.52734,165.85547 c 0.46485,0 0.84375,0.3789 0.84375,0.84375 0,0.46484 -1.0664,0.92578 0.12891,1.80859 1.28125,0.94922 3.66797,0.91406 5.98047,0.57031 -0.78906,-0.0352 -1.54297,-0.18359 -2.21485,-0.46093 -1.72656,-0.71094 -2.01953,-1.6875 -2.01953,-2.01172 0,-0.46485 0.37891,-0.84375 0.84375,-0.84375 0.46485,0 0.83985,0.3789 0.83985,0.84375 0,0.34375 -0.58203,0.8789 0.55859,1.49609 0.72656,0.39453 1.6875,0.44922 2.67188,0.41797 -0.3086,-0.0547 -0.60547,-0.12109 -0.86719,-0.21094 -0.61328,-0.21484 -1.07422,-0.51172 -1.375,-0.89062 -0.1211,-0.10547 -0.20313,-0.24219 -0.2461,-0.39844 -0.004,-0.008 -0.008,-0.0117 -0.0117,-0.0156 l 0.004,-0.004 c -0.0195,-0.0664 -0.0312,-0.13281 -0.0312,-0.20703 0,-0.46485 0.38672,-0.91406 0.84375,-0.84375 0.61328,0.0937 0.47266,0.4375 0.47266,0.90234 0,0.3086 0,0.70313 0.52734,0.92188 1.36719,0.57031 3.37891,0.34765 4.73828,-0.0781 0.27735,-0.0977 0.54688,-0.20312 0.80469,-0.3125 2.11328,-1.10937 3.625,-1.61719 5.52734,-1.14453 0,0 2.54688,-0.29687 3.65235,-0.125 0.88281,0.13672 2.46875,0.63281 2.55859,1.71094 0.0391,0.46484 -0.375,0.84375 -0.84375,0.84375 -0.46484,0 -0.84375,-0.37891 -0.84375,-0.84375 0,-0.26563 0.12891,-0.5 0.31641,-0.65235 -0.22656,-0.23437 -0.67188,-0.41015 -1.27735,-0.5039 -1.53515,-0.23438 -4.79296,0.53515 -4.75781,1.4375 0.0195,0.46484 -0.375,0.84375 -0.84375,0.84375 -0.46484,0 -0.95312,-0.39063 -0.83984,-0.84375 0.21094,-0.86719 1.58594,-1.27344 2.00781,-1.44531 -1.41797,-0.14844 -2.69922,0.32812 -4.41016,1.22656 -0.008,0.004 -0.0117,0.004 -0.0195,0.008 0,0 0,0.004 -0.004,0.004 -0.27735,0.14062 -0.59375,0.26172 -0.92969,0.36718 l 0,0.004 c -2.04297,0.93359 -4.77734,1.56641 -7.18359,1.56641 -1.52735,0 -2.91797,-0.25391 -3.91407,-0.84375 -0.79297,-0.46875 -1.27734,-1.10938 -1.43359,-1.90625 -0.10938,-0.58594 0.27734,-1.23047 0.74609,-1.23047"
         id="path6513"
         style="fill:#de9919;fill-opacity:1;fill-rule:nonzero;stroke:none" />
      <path
         d="m 534.58594,143.15625 c -0.87891,-0.56641 -3.51563,-1.23438 -7.10547,0 -0.32422,0.10937 -0.66406,0.21875 -1.01563,0.33203 -2.83984,0.94531 -8.26172,2.16016 -8.27343,0.73047 0,-0.33594 -0.27344,-0.60938 -0.60938,-0.60938 -0.33594,0 -0.60937,0.27344 -0.60937,0.60938 0,0.11328 0.0391,0.21094 0.0898,0.30078 l -0.0273,0.0195 c 0.64453,0.77735 1.64453,1.07031 2.82812,1.07031 2.01953,0 4.57031,-0.84765 6.77734,-1.58593 0.34766,-0.11719 0.6875,-0.22657 1.01172,-0.33203 0.57032,-0.1875 1.05078,-0.30079 1.45703,-0.36719 0,0 0.53907,-0.0273 0.77735,-0.0742 0.78906,-0.0117 1.14453,0.21875 1.29297,0.36328 0.16797,0.16797 0.1914,0.35547 0.17968,0.49609 -0.10156,-0.19531 -0.30078,-0.33593 -0.53515,-0.33593 -0.33594,0 -0.65235,0.39453 -0.63281,0.64453 0.0195,0.2539 0.12109,0.51172 0.1914,0.59765 0.15235,0.1836 0.40235,0.26172 0.66797,0.21094 0.36328,-0.0703 0.67578,-0.36719 0.8125,-0.77734 0.14844,-0.44141 0.0391,-0.90235 -0.28516,-1.23438 -0.0547,-0.0547 -0.125,-0.11328 -0.21093,-0.16797 1.75,-0.12109 2.5625,0.3086 2.87109,0.55079 0.14453,0.11718 0.24609,0.24218 0.30469,0.36718 -0.10156,-0.0703 -0.21485,-0.12109 -0.34375,-0.12109 -0.33985,0 -0.60938,0.27344 -0.60938,0.60937 0,0.12891 0.0508,0.24219 0.11719,0.34375 0.0312,0.0859 0.0781,0.16016 0.14844,0.22266 0.11328,0.10547 0.26953,0.16406 0.4375,0.16406 0.42187,0 0.86719,-0.35547 0.86719,-1.01172 0,-0.36328 -0.17969,-0.76171 -0.57422,-1.01562"
         id="path6515"
         style="fill:#de9919;fill-opacity:1;fill-rule:nonzero;stroke:none" />
      <path
         d="m 506.91797,145.29687 28.54687,0"
         id="path6517"
         style="fill:none;stroke:#de9919;stroke-width:0.56199998;stroke-linecap:round;stroke-linejoin:miter;stroke-miterlimit:4;stroke-opacity:1" />
      <path
         d="m 538.78125,143 c 0.87891,-0.56641 3.51562,-1.23438 7.10547,-0.004 0.32422,0.11328 0.66406,0.21875 1.01562,0.33594 2.83985,0.94531 8.26172,2.16016 8.27344,0.73047 0,-0.33594 0.26953,-0.60938 0.60938,-0.60938 0.33593,0 0.60546,0.27344 0.60546,0.60938 0,0.10937 -0.0352,0.21094 -0.0898,0.30078 l 0.0273,0.0195 c -0.64453,0.77735 -1.64453,1.06641 -2.82421,1.06641 -2.01954,0 -4.57032,-0.84766 -6.78125,-1.58203 -0.34766,-0.11719 -0.6836,-0.23047 -1.00782,-0.33594 -0.57422,-0.18359 -1.05078,-0.29688 -1.46093,-0.36328 0,0 -0.53516,-0.0273 -0.77735,-0.0742 -0.78906,-0.0117 -1.14453,0.21484 -1.28906,0.35937 -0.17188,0.17188 -0.19141,0.35938 -0.17969,0.4961 0.0977,-0.19531 0.29688,-0.33203 0.53516,-0.33203 0.33594,0 0.65234,0.39062 0.63281,0.64453 -0.0195,0.25 -0.12109,0.51172 -0.19531,0.59765 -0.14844,0.17969 -0.39844,0.25782 -0.66797,0.20704 -0.36328,-0.0703 -0.67578,-0.36719 -0.80859,-0.77344 -0.15235,-0.44531 -0.043,-0.90625 0.28515,-1.23438 0.0547,-0.0547 0.125,-0.11328 0.20703,-0.16797 -1.75,-0.12109 -2.5625,0.3086 -2.86718,0.55079 -0.14844,0.11328 -0.2461,0.23828 -0.30469,0.36718 0.0977,-0.0703 0.21484,-0.12109 0.34375,-0.12109 0.33594,0 0.60937,0.27344 0.60937,0.60937 0,0.12891 -0.0508,0.24219 -0.11718,0.33985 -0.0352,0.0859 -0.082,0.16406 -0.14844,0.22656 -0.11719,0.10547 -0.26953,0.16406 -0.4375,0.16406 -0.42188,0 -0.86719,-0.35547 -0.86719,-1.01172 0,-0.36718 0.17578,-0.76171 0.57422,-1.01562"
         id="path6519"
         style="fill:#de9919;fill-opacity:1;fill-rule:nonzero;stroke:none" />
      <path
         d="m 566.44531,145.14062 -28.54687,0"
         id="path6521"
         style="fill:none;stroke:#de9919;stroke-width:0.56199998;stroke-linecap:round;stroke-linejoin:miter;stroke-miterlimit:4;stroke-opacity:1" />
    </g>
  </g>
</svg>
